<?xml version="1.0" standalone="no"?>
<!DOCTYPE svg PUBLIC "-//W3C//DTD SVG 1.1//EN" "http://www.w3.org/Graphics/SVG/1.1/DTD/svg11.dtd">
<svg width="192" height="160" version="1.1" xmlns="http://www.w3.org/2000/svg">
  <rect width="192" height="160" fill="white" stroke="none" />
  <title>5 by 5 puzzle</title>
  <g fill="blue" stroke="none">
    <polygon points="32,16 16,16 16,32 32,32" />
  </g>
  <g fill="red" stroke="none">
    <polygon points="48,16 32,16 32,32 48,32" />
    <polygon points="32,32 16,32 16,48 32,48" />
  </g>
  <g fill="yellow" stroke="none">
    <polygon points="64,16 48,16 48,32 64,32" />
    <polygon points="46,32 32,32 32,48 48,48" />
    <polygon points="32,48 16,48 16,64 32,64" />
  </g>
<g fill="black" stroke="none" stroke-width="1">
    <text x="24" y="26" text-anchor="middle" style="font-family:Arial Narrow; font-size: xx-small;">1</text>
    <text x="40" y="26" text-anchor="middle" style="font-family:Arial Narrow; font-size: xx-small;">1</text>
    <text x="56" y="26" text-anchor="middle" style="font-family:Arial Narrow; font-size: xx-small;">2</text>
    <text x="72" y="26" text-anchor="middle" style="font-family:Arial Narrow; font-size: xx-small;">2</text>
    <text x="88" y="26" text-anchor="middle" style="font-family:Arial Narrow; font-size: xx-small;">3</text>
    <text x="24" y="42" text-anchor="middle" style="font-family:Arial Narrow; font-size: xx-small;">1</text>
    <text x="40" y="42" text-anchor="middle" style="font-family:Arial Narrow; font-size: xx-small;">2</text>
    <text x="56" y="42" text-anchor="middle" style="font-family:Arial Narrow; font-size: xx-small;">2</text>
    <text x="72" y="42" text-anchor="middle" style="font-family:Arial Narrow; font-size: xx-small;">3</text>
    <text x="88" y="42" text-anchor="middle" style="font-family:Arial Narrow; font-size: xx-small;">3</text>
    <text x="24" y="58" text-anchor="middle" style="font-family:Arial Narrow; font-size: xx-small;">2</text>
    <text x="40" y="58" text-anchor="middle" style="font-family:Arial Narrow; font-size: xx-small;">2</text>
    <text x="56" y="58" text-anchor="middle" style="font-family:Arial Narrow; font-size: xx-small;">3</text>
    <text x="72" y="58" text-anchor="middle" style="font-family:Arial Narrow; font-size: xx-small;">3</text>
    <text x="88" y="58" text-anchor="middle" style="font-family:Arial Narrow; font-size: xx-small;">4</text>
    <text x="24" y="74" text-anchor="middle" style="font-family:Arial Narrow; font-size: xx-small;">2</text>
    <text x="40" y="74" text-anchor="middle" style="font-family:Arial Narrow; font-size: xx-small;">3</text>
    <text x="56" y="74" text-anchor="middle" style="font-family:Arial Narrow; font-size: xx-small;">3</text>
    <text x="72" y="74" text-anchor="middle" style="font-family:Arial Narrow; font-size: xx-small;">4</text>
    <text x="88" y="74" text-anchor="middle" style="font-family:Arial Narrow; font-size: xx-small;">4</text>
    <text x="24" y="90" text-anchor="middle" style="font-family:Arial Narrow; font-size: xx-small;">3</text>
    <text x="40" y="90" text-anchor="middle" style="font-family:Arial Narrow; font-size: xx-small;">3</text>
    <text x="56" y="90" text-anchor="middle" style="font-family:Arial Narrow; font-size: xx-small;">4</text>
    <text x="72" y="90" text-anchor="middle" style="font-family:Arial Narrow; font-size: xx-small;">4</text>
    <text x="88" y="90" text-anchor="middle" style="font-family:Arial Narrow; font-size: xx-small;">5</text>
  </g>
</svg>
